<?xml version="1.0" encoding="UTF-8" standalone="no"?>
<!DOCTYPE svg PUBLIC "-//W3C//DTD SVG 1.0//EN" "http://www.w3.org/TR/2001/PR-SVG-20010719/DTD/svg10.dtd">
<svg width="39cm" height="44cm" viewBox="19 -61 779 878" xmlns="http://www.w3.org/2000/svg" xmlns:xlink="http://www.w3.org/1999/xlink">
  <g id="Фон">
    <ellipse style="fill: #000000; fill-opacity: 1; stroke: none" cx="76.05" cy="-50" rx="10" ry="10"/>
    <g>
      <ellipse style="fill: #ffffff; fill-opacity: 1; stroke-opacity: 1; stroke-width: 2; stroke: #000000" cx="55" cy="795" rx="15" ry="15"/>
      <ellipse style="fill: #000000; fill-opacity: 1; stroke: none" cx="55" cy="795" rx="10" ry="10"/>
    </g>
    <g>
      <rect style="fill: #ffffff; fill-opacity: 1; stroke-opacity: 1; stroke-width: 2; stroke: #000000" x="20" y="0" width="112.1" height="36" rx="10" ry="10"/>
      <text font-size="12.8" style="fill: #000000; fill-opacity: 1; stroke: none;text-anchor:middle;font-family:sans-serif;font-style:normal;font-weight:normal" x="76.05" y="21.9">
        <tspan x="76.05" y="21.9">Поступивший</tspan>
      </text>
    </g>
    <g>
      <polygon style="fill: #ffffff; fill-opacity: 1; stroke-opacity: 1; stroke-width: 2; stroke: #000000" fill-rule="evenodd" points="600,-60 775.4,-60 787.4,-48 787.4,22 600,22 "/>
      <polyline style="fill: none; stroke-opacity: 1; stroke-width: 1; stroke: #000000" points="775.4,-60 775.4,-48 787.4,-48 "/>
      <text font-size="12.8" style="fill: #000000; fill-opacity: 1; stroke: none;text-anchor:start;font-family:monospace;font-style:normal;font-weight:normal" x="607" y="-35.1">
        <tspan x="607" y="-35.1">Субъект моделирования:</tspan>
        <tspan xml:space="preserve" x="607" y="-19.1">  Заказ на ремонт</tspan>
        <tspan x="607" y="-3.1">Точка зрения:</tspan>
        <tspan xml:space="preserve" x="607" y="12.9">  Мастер</tspan>
      </text>
    </g>
    <g>
      <rect style="fill: #ffffff; fill-opacity: 1; stroke-opacity: 1; stroke-width: 2; stroke: #000000" x="300" y="100" width="182.9" height="36" rx="10" ry="10"/>
      <text font-size="12.8" style="fill: #000000; fill-opacity: 1; stroke: none;text-anchor:middle;font-family:sans-serif;font-style:normal;font-weight:normal" x="391.45" y="121.9">
        <tspan x="391.45" y="121.9">Продиагностированный</tspan>
      </text>
    </g>
    <text font-size="12.8" style="fill: #000000; fill-opacity: 1; stroke: none;text-anchor:start;font-family:sans-serif;font-style:normal;font-weight:normal" x="394.45" y="72.425">
      <tspan x="394.45" y="72.425">Диагностика аппарата</tspan>
    </text>
    <g>
      <rect style="fill: #ffffff; fill-opacity: 1; stroke-opacity: 1; stroke-width: 2; stroke: #000000" x="331.95" y="0" width="119" height="36" rx="10" ry="10"/>
      <text font-size="12.8" style="fill: #000000; fill-opacity: 1; stroke: none;text-anchor:middle;font-family:sans-serif;font-style:normal;font-weight:normal" x="391.45" y="21.9">
        <tspan x="391.45" y="21.9">Договорённый</tspan>
      </text>
    </g>
    <g>
      <polyline style="fill: none; stroke-opacity: 1; stroke-width: 2; stroke: #000000" points="76.05,-38.9946 76.05,-20.002 76.05,-20.002 76.05,-5.48141 "/>
      <polyline style="fill: none; stroke-opacity: 1; stroke-width: 2; stroke: #000000" points="71.05,-13.2453 76.05,-3.24535 81.05,-13.2453 "/>
    </g>
    <g>
      <polyline style="fill: none; stroke-opacity: 1; stroke-width: 2; stroke: #000000" points="133.107,18 232.025,18 232.025,18 326.47,18 "/>
      <polyline style="fill: none; stroke-opacity: 1; stroke-width: 2; stroke: #000000" points="318.707,23 328.707,18 318.707,13 "/>
    </g>
    <g>
      <polyline style="fill: none; stroke-opacity: 1; stroke-width: 2; stroke: #000000" points="391.45,37.0093 391.45,68 391.45,68 391.45,94.5186 "/>
      <polyline style="fill: none; stroke-opacity: 1; stroke-width: 2; stroke: #000000" points="386.45,86.7547 391.45,96.7547 396.45,86.7547 "/>
    </g>
    <text font-size="12.8" style="fill: #000000; fill-opacity: 1; stroke: none;text-anchor:middle;font-family:sans-serif;font-style:normal;font-weight:normal" x="232.024" y="-4.05">
      <tspan x="232.024" y="-4.05">Договор</tspan>
      <tspan x="232.024" y="11.95">о диагностике</tspan>
    </text>
    <g>
      <rect style="fill: #ffffff; fill-opacity: 1; stroke-opacity: 1; stroke-width: 2; stroke: #000000" x="347.45" y="440" width="88" height="36" rx="10" ry="10"/>
      <text font-size="12.8" style="fill: #000000; fill-opacity: 1; stroke: none;text-anchor:middle;font-family:sans-serif;font-style:normal;font-weight:normal" x="391.45" y="461.9">
        <tspan x="391.45" y="461.9">Принятый</tspan>
      </text>
    </g>
    <g>
      <rect style="fill: #ffffff; fill-opacity: 1; stroke-opacity: 1; stroke-width: 2; stroke: #000000" x="160" y="540" width="112.7" height="52" rx="10" ry="10"/>
      <text font-size="12.8" style="fill: #000000; fill-opacity: 1; stroke: none;text-anchor:middle;font-family:sans-serif;font-style:normal;font-weight:normal" x="216.35" y="561.9">
        <tspan x="216.35" y="561.9">Отклонённый</tspan>
        <tspan x="216.35" y="577.9">заказчиком</tspan>
      </text>
    </g>
    <g>
      <polyline style="fill: none; stroke-opacity: 1; stroke-width: 2; stroke: #000000" points="391.45,357.009 391.45,398 391.45,398 391.45,434.519 "/>
      <polyline style="fill: none; stroke-opacity: 1; stroke-width: 2; stroke: #000000" points="386.45,426.755 391.45,436.755 396.45,426.755 "/>
    </g>
    <g>
      <polyline style="fill: none; stroke-opacity: 1; stroke-width: 2; stroke: #000000" points="338.4,226 216.35,226 216.35,535.528 "/>
      <polyline style="fill: none; stroke-opacity: 1; stroke-width: 2; stroke: #000000" points="211.35,527.764 216.35,537.764 221.35,527.764 "/>
    </g>
    <text font-size="12.8" style="fill: #000000; fill-opacity: 1; stroke: none;text-anchor:start;font-family:sans-serif;font-style:normal;font-weight:normal" x="394.45" y="394.425">
      <tspan x="394.45" y="394.425">Принятие</tspan>
      <tspan x="394.45" y="410.425">на ремонт</tspan>
    </text>
    <text font-size="12.8" style="fill: #000000; fill-opacity: 1; stroke: none;text-anchor:start;font-family:sans-serif;font-style:normal;font-weight:normal" x="219.35" y="371.425">
      <tspan x="219.35" y="371.425">Отказ от</tspan>
      <tspan x="219.35" y="387.425">ремонта</tspan>
      <tspan x="219.35" y="403.425">или неоплата</tspan>
    </text>
    <g>
      <rect style="fill: #ffffff; fill-opacity: 1; stroke-opacity: 1; stroke-width: 2; stroke: #000000" x="324.874" y="540" width="133.15" height="52" rx="10" ry="10"/>
      <text font-size="12.8" style="fill: #000000; fill-opacity: 1; stroke: none;text-anchor:middle;font-family:sans-serif;font-style:normal;font-weight:normal" x="391.449" y="561.9">
        <tspan x="391.449" y="561.9">Ремонтирование</tspan>
        <tspan x="391.449" y="577.9">аппарата</tspan>
      </text>
    </g>
    <g>
      <rect style="fill: #ffffff; fill-opacity: 1; stroke-opacity: 1; stroke-width: 2; stroke: #000000" x="343.974" y="660" width="94.95" height="36" rx="10" ry="10"/>
      <text font-size="12.8" style="fill: #000000; fill-opacity: 1; stroke: none;text-anchor:middle;font-family:sans-serif;font-style:normal;font-weight:normal" x="391.449" y="681.9">
        <tspan x="391.449" y="681.9">Испытание</tspan>
      </text>
    </g>
    <g>
      <polyline style="fill: none; stroke-opacity: 1; stroke-width: 2; stroke: #000000" points="391.449,592.982 391.449,625.998 391.449,625.998 391.449,654.522 "/>
      <polyline style="fill: none; stroke-opacity: 1; stroke-width: 2; stroke: #000000" points="386.449,646.758 391.449,656.758 396.449,646.758 "/>
    </g>
    <g>
      <rect style="fill: #ffffff; fill-opacity: 1; stroke-opacity: 1; stroke-width: 2; stroke: #000000" x="339.174" y="780" width="104.55" height="36" rx="10" ry="10"/>
      <text font-size="12.8" style="fill: #000000; fill-opacity: 1; stroke: none;text-anchor:middle;font-family:sans-serif;font-style:normal;font-weight:normal" x="391.449" y="801.9">
        <tspan x="391.449" y="801.9">На гарантии</tspan>
      </text>
    </g>
    <g>
      <rect style="fill: #ffffff; fill-opacity: 1; stroke-opacity: 1; stroke-width: 2; stroke: #000000" x="100" y="780" width="80" height="36" rx="10" ry="10"/>
      <text font-size="12.8" style="fill: #000000; fill-opacity: 1; stroke: none;text-anchor:middle;font-family:sans-serif;font-style:normal;font-weight:normal" x="140" y="801.9">
        <tspan x="140" y="801.9">Рабочий</tspan>
      </text>
    </g>
    <g>
      <polyline style="fill: none; stroke-opacity: 1; stroke-width: 2; stroke: #000000" points="338.167,798 259.586,798 259.586,798 185.477,798 "/>
      <polyline style="fill: none; stroke-opacity: 1; stroke-width: 2; stroke: #000000" points="193.241,793 183.241,798 193.241,803 "/>
    </g>
    <text font-size="12.8" style="fill: #000000; fill-opacity: 1; stroke: none;text-anchor:middle;font-family:sans-serif;font-style:normal;font-weight:normal" x="259.586" y="759.95">
      <tspan x="259.586" y="759.95">Конец гарантии</tspan>
      <tspan x="259.586" y="775.95">[С момента сдачи</tspan>
      <tspan x="259.586" y="791.95">в работу&gt; 3 месяцев]</tspan>
    </text>
    <g>
      <polyline style="fill: none; stroke-opacity: 1; stroke-width: 2; stroke: #000000" points="443.724,798 521.862,798 521.862,798 595.528,798 "/>
      <polyline style="fill: none; stroke-opacity: 1; stroke-width: 2; stroke: #000000" points="587.764,803 597.764,798 587.764,793 "/>
    </g>
    <text font-size="12.8" style="fill: #000000; fill-opacity: 1; stroke: none;text-anchor:middle;font-family:sans-serif;font-style:normal;font-weight:normal" x="521.862" y="791.95">
      <tspan x="521.862" y="791.95">Поломка аппарата</tspan>
    </text>
    <text font-size="12.8" style="fill: #000000; fill-opacity: 1; stroke: none;text-anchor:start;font-family:sans-serif;font-style:normal;font-weight:normal" x="394.45" y="512.427">
      <tspan x="394.45" y="512.427">Начало работ</tspan>
    </text>
    <text font-size="12.8" style="fill: #000000; fill-opacity: 1; stroke: none;text-anchor:start;font-family:sans-serif;font-style:normal;font-weight:normal" x="394.45" y="630.423">
      <tspan x="394.45" y="630.423">Починка</tspan>
    </text>
    <text font-size="12.8" style="fill: #000000; fill-opacity: 1; stroke: none;text-anchor:start;font-family:sans-serif;font-style:normal;font-weight:normal" x="394.45" y="734.425">
      <tspan x="394.45" y="734.425">Успешная работа</tspan>
      <tspan x="394.45" y="750.425">аппарата</tspan>
    </text>
    <g>
      <polyline style="fill: none; stroke-opacity: 1; stroke-width: 2; stroke: #000000" points="438.924,678 500,678 500,566 462.496,566 "/>
      <polyline style="fill: none; stroke-opacity: 1; stroke-width: 2; stroke: #000000" points="470.26,561 460.26,566 470.26,571 "/>
    </g>
    <text font-size="12.8" style="fill: #000000; fill-opacity: 1; stroke: none;text-anchor:start;font-family:sans-serif;font-style:normal;font-weight:normal" x="503" y="618.425">
      <tspan x="503" y="618.425">Выяснен</tspan>
      <tspan x="503" y="634.425">дефект</tspan>
    </text>
    <g>
      <polyline style="fill: none; stroke-opacity: 1; stroke-width: 2; stroke: #000000" points="98.995,798 85.0014,798 85.0014,795 75.4799,795 "/>
      <polyline style="fill: none; stroke-opacity: 1; stroke-width: 2; stroke: #000000" points="83.2439,790 73.2439,795 83.2439,800 "/>
    </g>
    <g>
      <polyline style="fill: none; stroke-opacity: 1; stroke-width: 2; stroke: #000000" points="216.35,593 216.35,640 55,640 55,775.528 "/>
      <polyline style="fill: none; stroke-opacity: 1; stroke-width: 2; stroke: #000000" points="50,767.764 55,777.764 60,767.764 "/>
    </g>
    <g>
      <polyline style="fill: none; stroke-opacity: 1; stroke-width: 2; stroke: #000000" points="391.45,477.009 391.45,508.001 391.449,508.001 391.449,534.521 "/>
      <polyline style="fill: none; stroke-opacity: 1; stroke-width: 2; stroke: #000000" points="386.449,526.757 391.449,536.757 396.449,526.757 "/>
    </g>
    <g>
      <rect style="fill: #ffffff; fill-opacity: 1; stroke-opacity: 1; stroke-width: 2; stroke: #000000" x="338.4" y="200" width="106.1" height="52" rx="10" ry="10"/>
      <text font-size="12.8" style="fill: #000000; fill-opacity: 1; stroke: none;text-anchor:middle;font-family:sans-serif;font-style:normal;font-weight:normal" x="391.45" y="221.9">
        <tspan x="391.45" y="221.9">Ожидающий</tspan>
        <tspan x="391.45" y="237.9">оплаты</tspan>
      </text>
    </g>
    <g>
      <polyline style="fill: none; stroke-opacity: 1; stroke-width: 2; stroke: #000000" points="391.45,253.007 391.45,285.999 391.45,285.999 391.45,314.519 "/>
      <polyline style="fill: none; stroke-opacity: 1; stroke-width: 2; stroke: #000000" points="386.45,306.755 391.45,316.755 396.45,306.755 "/>
    </g>
    <g>
      <rect style="fill: #ffffff; fill-opacity: 1; stroke-opacity: 1; stroke-width: 2; stroke: #000000" x="351.45" y="320" width="80" height="36" rx="10" ry="10"/>
      <text font-size="12.8" style="fill: #000000; fill-opacity: 1; stroke: none;text-anchor:middle;font-family:sans-serif;font-style:normal;font-weight:normal" x="391.45" y="341.9">
        <tspan x="391.45" y="341.9">Оплачен</tspan>
      </text>
    </g>
    <text font-size="12.8" style="fill: #000000; fill-opacity: 1; stroke: none;text-anchor:start;font-family:sans-serif;font-style:normal;font-weight:normal" x="394.45" y="282.423">
      <tspan x="394.45" y="282.423">Оплата</tspan>
      <tspan x="394.45" y="298.423">ремонта</tspan>
    </text>
    <g>
      <polyline style="fill: none; stroke-opacity: 1; stroke-width: 2; stroke: #000000" points="391.449,697.009 391.449,738 391.449,738 391.449,774.519 "/>
      <polyline style="fill: none; stroke-opacity: 1; stroke-width: 2; stroke: #000000" points="386.449,766.755 391.449,776.755 396.449,766.755 "/>
    </g>
    <g>
      <polyline style="fill: none; stroke-opacity: 1; stroke-width: 2; stroke: #000000" points="391.45,137.009 391.45,168.001 391.45,168.001 391.45,194.521 "/>
      <polyline style="fill: none; stroke-opacity: 1; stroke-width: 2; stroke: #000000" points="386.45,186.757 391.45,196.757 396.45,186.757 "/>
    </g>
    <g>
      <rect style="fill: #ffffff; fill-opacity: 1; stroke-opacity: 1; stroke-width: 2; stroke: #000000" x="607.026" y="320" width="182.9" height="36" rx="10" ry="10"/>
      <text font-size="12.8" style="fill: #000000; fill-opacity: 1; stroke: none;text-anchor:middle;font-family:sans-serif;font-style:normal;font-weight:normal" x="698.476" y="341.9">
        <tspan x="698.476" y="341.9">Продиагностированный</tspan>
      </text>
    </g>
    <g>
      <polyline style="fill: none; stroke-opacity: 1; stroke-width: 2; stroke: #000000" points="607.026,338 500,338 500,458 440.928,458 "/>
      <polyline style="fill: none; stroke-opacity: 1; stroke-width: 2; stroke: #000000" points="448.692,453 438.692,458 448.692,463 "/>
    </g>
    <g>
      <polyline style="fill: none; stroke-opacity: 1; stroke-width: 2; stroke: #000000" points="607.026,338 500,338 500,226 448.972,226 "/>
      <polyline style="fill: none; stroke-opacity: 1; stroke-width: 2; stroke: #000000" points="456.736,221 446.736,226 456.736,231 "/>
    </g>
    <g>
      <rect style="fill: #ffffff; fill-opacity: 1; stroke-opacity: 1; stroke-width: 2; stroke: #000000" x="20" y="540" width="112.7" height="52" rx="10" ry="10"/>
      <text font-size="12.8" style="fill: #000000; fill-opacity: 1; stroke: none;text-anchor:middle;font-family:sans-serif;font-style:normal;font-weight:normal" x="76.35" y="561.9">
        <tspan x="76.35" y="561.9">Отклонённый</tspan>
        <tspan x="76.35" y="577.9">компанией</tspan>
      </text>
    </g>
    <g>
      <polyline style="fill: none; stroke-opacity: 1; stroke-width: 2; stroke: #000000" points="76.35,592 76.35,640 55,640 55,775.528 "/>
      <polyline style="fill: none; stroke-opacity: 1; stroke-width: 2; stroke: #000000" points="50,767.764 55,777.764 60,767.764 "/>
    </g>
    <g>
      <polyline style="fill: none; stroke-opacity: 1; stroke-width: 2; stroke: #000000" points="300,118 76.35,118 76.35,535.528 "/>
      <polyline style="fill: none; stroke-opacity: 1; stroke-width: 2; stroke: #000000" points="71.35,527.764 76.35,537.764 81.35,527.764 "/>
    </g>
    <text font-size="12.8" style="fill: #000000; fill-opacity: 1; stroke: none;text-anchor:start;font-family:sans-serif;font-style:normal;font-weight:normal" x="79.35" y="317.425">
      <tspan x="79.35" y="317.425">Отклонение</tspan>
      <tspan x="79.35" y="333.425">ремонта</tspan>
      <tspan x="79.35" y="349.425">мастером</tspan>
    </text>
    <text font-size="12.8" style="fill: #000000; fill-opacity: 1; stroke: none;text-anchor:start;font-family:sans-serif;font-style:normal;font-weight:normal" x="503" y="394.425">
      <tspan x="503" y="394.425">Диагностированна</tspan>
      <tspan x="503" y="410.425">гарантийная поломка</tspan>
    </text>
    <text font-size="12.8" style="fill: #000000; fill-opacity: 1; stroke: none;text-anchor:start;font-family:sans-serif;font-style:normal;font-weight:normal" x="503" y="278.425">
      <tspan x="503" y="278.425">Диагностированна</tspan>
      <tspan x="503" y="294.425">не гарантийная поломка</tspan>
    </text>
    <g>
      <rect style="fill: #ffffff; fill-opacity: 1; stroke-opacity: 1; stroke-width: 2; stroke: #000000" x="600" y="780" width="196.95" height="36" rx="10" ry="10"/>
      <text font-size="12.8" style="fill: #000000; fill-opacity: 1; stroke: none;text-anchor:middle;font-family:sans-serif;font-style:normal;font-weight:normal" x="698.475" y="801.9">
        <tspan x="698.475" y="801.9">Ожидающий диагностики</tspan>
      </text>
    </g>
    <g>
      <polyline style="fill: none; stroke-opacity: 1; stroke-width: 2; stroke: #000000" points="698.475,778.991 698.475,568 698.476,568 698.476,361.481 "/>
      <polyline style="fill: none; stroke-opacity: 1; stroke-width: 2; stroke: #000000" points="703.476,369.245 698.476,359.245 693.476,369.245 "/>
    </g>
    <text font-size="12.8" style="fill: #000000; fill-opacity: 1; stroke: none;text-anchor:start;font-family:sans-serif;font-style:normal;font-weight:normal" x="701.476" y="564.425">
      <tspan x="701.476" y="564.425">Диагностика</tspan>
      <tspan x="701.476" y="580.425">аппарата</tspan>
    </text>
    <text font-size="12.8" style="fill: #000000; fill-opacity: 1; stroke: none;text-anchor:start;font-family:sans-serif;font-style:normal;font-weight:normal" x="394.45" y="172.426">
      <tspan x="394.45" y="172.426">Согласие заказчика</tspan>
    </text>
  </g>
</svg>
